<svg id="图层_1" data-name="图层 1" xmlns="http://www.w3.org/2000/svg" viewBox="0 0 79.09 68.45"><defs><style>.cls-1{fill:#ff9966;}</style></defs><path class="cls-1" d="M72,39.72l2,5.48L59,50.73l2.19,4.38H72.07V48.3H77.9V67.76H72.07V61H57.61l-4.09-8.19L37.08,58.82l-2-5.48L72,39.72ZM7.27,34.87,20.5,52.19l-6.22,1.75L1.05,36.63ZM70.12,3.24l.14.43,7.66,27.56a3.9,3.9,0,0,1-2,4.51l-.42.18L29.07,53.13a3.9,3.9,0,0,1-4.17-1l-.3-.35L6.17,27.25a3.89,3.89,0,0,1,1.4-5.83L8,21.24,65.22,1.05a3.88,3.88,0,0,1,4.9,2.19Zm-12.65,12a3.89,3.89,0,1,0,3.89,3.89,3.89,3.89,0,0,0-3.89-3.89Zm0,0"/></svg>