<svg id="图层_1" data-name="图层 1" xmlns="http://www.w3.org/2000/svg" xmlns:xlink="http://www.w3.org/1999/xlink" viewBox="0 0 82.92 82.92"><defs><style>.cls-1{fill:url(#未命名的渐变_39);}.cls-2{fill:url(#未命名的渐变_40);}.cls-3{fill:url(#未命名的渐变_41);}.cls-4{fill:url(#未命名的渐变_43);}.cls-5{fill:url(#未命名的渐变_43-2);}.cls-6{fill:url(#未命名的渐变_16);}.cls-7{fill:url(#未命名的渐变_45);}.cls-8{fill:#00edff;}</style><radialGradient id="未命名的渐变_39" cx="-877.17" cy="-1583.64" r="0.7" gradientTransform="matrix(59.54, 0, 0, -59.54, 52271.76, -94254.59)" gradientUnits="userSpaceOnUse"><stop offset="0.47" stop-color="#0051d3" stop-opacity="0"/><stop offset="0.86" stop-color="#0183e3" stop-opacity="0.14"/><stop offset="1" stop-color="#0089ff" stop-opacity="0.28"/></radialGradient><linearGradient id="未命名的渐变_40" x1="-874.06" y1="-1598.4" x2="-872.93" y2="-1597.7" gradientTransform="matrix(44.33, 0, 0, -44.33, 38763.22, -70800.34)" gradientUnits="userSpaceOnUse"><stop offset="0" stop-color="#047bd7"/><stop offset="0.2" stop-color="#023e7c"/><stop offset="0.39" stop-color="#001640"/><stop offset="0.51" stop-color="#000121"/><stop offset="0.56" stop-color="#000b2a"/><stop offset="0.65" stop-color="#002842"/><stop offset="0.77" stop-color="#01576a"/><stop offset="0.78" stop-color="#025a6d"/><stop offset="0.92" stop-color="#03b2b8"/><stop offset="1" stop-color="#04eae8"/></linearGradient><linearGradient id="未命名的渐变_41" x1="-874.07" y1="-1654.09" x2="-873.02" y2="-1652.81" gradientTransform="matrix(44.33, 0, 0, -22.4, 38763.18, -36997.12)" gradientUnits="userSpaceOnUse"><stop offset="0" stop-color="#047bd7"/><stop offset="0.2" stop-color="#023e7c"/><stop offset="0.68" stop-color="#025a6d"/><stop offset="0.81" stop-color="#5b8f9b"/><stop offset="1" stop-color="#f2eae8"/></linearGradient><linearGradient id="未命名的渐变_43" x1="-753.58" y1="-3207.95" x2="-753.58" y2="-3207.57" gradientTransform="matrix(4.75, 0, 0, -4.75, 3621.87, -9789.07)" gradientUnits="userSpaceOnUse"><stop offset="0" stop-color="#a8f6fc"/><stop offset="1" stop-color="#24e3f1"/></linearGradient><linearGradient id="未命名的渐变_43-2" x1="-863.07" y1="-1820.59" x2="-863.07" y2="-1820.52" gradientTransform="matrix(25.72, 0, 0, -25.54, 22235.4, -41830.39)" xlink:href="#未命名的渐变_43"/><linearGradient id="未命名的渐变_16" x1="-863.43" y1="-1626.45" x2="-863.43" y2="-1627.84" gradientTransform="matrix(26.3, 0, 0, -29.19, 22767.53, -47471.43)" gradientUnits="userSpaceOnUse"><stop offset="0" stop-color="#a8f6fc" stop-opacity="0"/><stop offset="1" stop-color="#24e3f1"/></linearGradient><linearGradient id="未命名的渐变_45" x1="-863.67" y1="-1648.01" x2="-863.67" y2="-1649.4" gradientTransform="matrix(26.13, 0, 0, -23.41, 22592.18, -38529.82)" gradientUnits="userSpaceOnUse"><stop offset="0" stop-color="#24e3f1"/><stop offset="0.98" stop-color="#a8f6fc" stop-opacity="0"/></linearGradient></defs><g id="组_1107-2" data-name="组 1107-2"><circle id="椭圆_483-2" data-name="椭圆 483-2" class="cls-1" cx="41.46" cy="41.46" r="41.46"/><g id="组_1105-2" data-name="组 1105-2"><circle id="椭圆_484-2" data-name="椭圆 484-2" class="cls-2" cx="41.24" cy="41.01" r="30.86"/><path id="路径_1618-2" data-name="路径 1618-2" class="cls-3" d="M41.24,10.92a30.85,30.85,0,0,1,30.84,30.5c0-.12,0-.24,0-.37a30.87,30.87,0,0,0-61.73,0c0,.13,0,.25,0,.37A30.86,30.86,0,0,1,41.24,10.92Z"/></g><g id="组_597-2" data-name="组 597-2"><path id="路径_1845-2" data-name="路径 1845-2" class="cls-4" d="M42.24,38.06a3.31,3.31,0,1,0-1,6.41h0a3.31,3.31,0,0,0,3.12-3.26V41A3.29,3.29,0,0,0,42.24,38.06Z"/><path id="路径_1846-2" data-name="路径 1846-2" class="cls-5" d="M59.14,42.33c.14-11.24-6.11-14-6.11-14l-6.44,6.39a8.12,8.12,0,0,0-4.33-1.91V23.23c-11.24-.09-14,6.11-14,6.11l6.48,6.39A8.17,8.17,0,0,0,33,40.07H23.34c-.14,11.29,6.1,14,6.1,14l6.48-6.8A8.07,8.07,0,0,0,40,49v9.8c11.24.09,14-6.1,14-6.1l-6.53-6.26a8.13,8.13,0,0,0,1.82-4.1Zm-18,3.77a4.95,4.95,0,0,1,.06-9.89h0a5,5,0,1,1-.05,9.9Z"/></g><g id="组_1106-2" data-name="组 1106-2"><path id="路径_1619-2" data-name="路径 1619-2" class="cls-6" d="M41,5.92A35.1,35.1,0,0,1,76.22,40.87,36.52,36.52,0,0,1,76,45.18h1.4a36,36,0,0,0,.23-4A36.61,36.61,0,0,0,41,4.54h0Z"/><path id="路径_1620-2" data-name="路径 1620-2" class="cls-7" d="M41,76.38A35.23,35.23,0,0,1,6,45.18H4.59A36.64,36.64,0,0,0,41,77.77Z"/></g><circle id="椭圆_485-2" data-name="椭圆 485-2" class="cls-8" cx="76.24" cy="48.3" r="1.06"/><circle id="椭圆_486-2" data-name="椭圆 486-2" class="cls-8" cx="5.02" cy="41.46" r="1.06"/></g></svg>