<svg id="图层_1" data-name="图层 1" xmlns="http://www.w3.org/2000/svg" xmlns:xlink="http://www.w3.org/1999/xlink" viewBox="0 0 63.85 36.99"><defs><style>.cls-1{fill:#01385e;}.cls-2{fill:url(#未命名的渐变_35);}.cls-3{fill:url(#未命名的渐变_36);}.cls-4{fill:url(#未命名的渐变_37);}.cls-5{fill:url(#未命名的渐变_38);}</style><linearGradient id="未命名的渐变_35" x1="-751.77" y1="-1746.34" x2="-751.86" y2="-1747.93" gradientTransform="matrix(15.39, 0, 0, -14.11, 11601.39, -24639.75)" gradientUnits="userSpaceOnUse"><stop offset="0" stop-color="#0435d7"/><stop offset="1" stop-color="#04eae8"/></linearGradient><radialGradient id="未命名的渐变_36" cx="-757.5" cy="364.75" r="2.61" gradientTransform="translate(6145.93 6681.36) scale(8.97 2.86)" gradientUnits="userSpaceOnUse"><stop offset="0" stop-color="#00aeff" stop-opacity="0"/><stop offset="0.89" stop-color="#0075ff" stop-opacity="0.13"/><stop offset="1" stop-color="#00b1ff" stop-opacity="0.57"/></radialGradient><radialGradient id="未命名的渐变_37" cx="-608.25" cy="-3092.65" r="2.49" gradientTransform="translate(3149.11 5305.22) scale(5.12 1.71)" gradientUnits="userSpaceOnUse"><stop offset="0" stop-color="#00d5fc" stop-opacity="0"/><stop offset="0.43" stop-color="#00caef" stop-opacity="0.15"/><stop offset="0.99" stop-color="#0095ff" stop-opacity="0.61"/></radialGradient><linearGradient id="未命名的渐变_38" x1="-772.31" y1="-2145.46" x2="-772.31" y2="-2145.31" gradientTransform="matrix(38.48, 0, 0, -14.11, 29746.68, -24639.44)" gradientUnits="userSpaceOnUse"><stop offset="0" stop-color="#00d5fc" stop-opacity="0"/><stop offset="0.6" stop-color="#019be3" stop-opacity="0.17"/><stop offset="1" stop-color="#0083ff" stop-opacity="0.57"/></linearGradient></defs><path id="路径_1616-2" data-name="路径 1616-2" class="cls-1" d="M21,1.08H42.88l-11,20.1Z"/><path id="路径_1617-2" data-name="路径 1617-2" class="cls-2" d="M31.48,18.93,40.63,2.16H22.33l9.15,16.77m0,4.48L18.71,0H44.25Z"/><ellipse id="椭圆_170-2" data-name="椭圆 170-2" class="cls-3" cx="31.93" cy="23.15" rx="23.41" ry="7.45"/><ellipse id="椭圆_142-2" data-name="椭圆 142-2" class="cls-4" cx="31.93" cy="22.09" rx="12.77" ry="4.26"/><path id="减去_156-2" data-name="减去 156-2" class="cls-5" d="M31.92,37C14.33,37,0,31.73,0,25.28S14.32,13.57,31.92,13.57s31.93,5.25,31.93,11.71S49.53,37,31.92,37Zm0-22.34C15.53,14.65,2.2,19.41,2.2,25.28S15.53,35.92,31.92,35.92s29.73-4.77,29.73-10.64S48.31,14.65,31.92,14.65Z"/></svg>